<svg width="115" height="115" viewBox="0 0 115 115" fill="none" xmlns="http://www.w3.org/2000/svg">
<path d="M91.0417 52.7083H23.9583C18.6656 52.7083 14.375 56.9989 14.375 62.2916V95.8333C14.375 101.126 18.6656 105.417 23.9583 105.417H91.0417C96.3344 105.417 100.625 101.126 100.625 95.8333V62.2916C100.625 56.9989 96.3344 52.7083 91.0417 52.7083Z" stroke="white" stroke-width="4" stroke-linecap="round" stroke-linejoin="round"/>
<path d="M33.5416 52.7083V33.5416C33.5416 27.1874 36.0658 21.0935 40.5589 16.6005C45.0519 12.1074 51.1458 9.58325 57.5 9.58325C63.8541 9.58325 69.948 12.1074 74.4411 16.6005C78.9341 21.0935 81.4583 27.1874 81.4583 33.5416V52.7083" stroke="white" stroke-width="4" stroke-linecap="round" stroke-linejoin="round"/>
</svg>
