<svg width="19" height="20" viewBox="0 0 19 20" fill="none" xmlns="http://www.w3.org/2000/svg">
<path d="M7.18166 18.4958C7.60843 18.4958 7.95439 18.1334 7.95439 17.6863C7.95439 17.2392 7.60843 16.8768 7.18166 16.8768C6.7549 16.8768 6.40894 17.2392 6.40894 17.6863C6.40894 18.1334 6.7549 18.4958 7.18166 18.4958Z" stroke="white" stroke-width="2" stroke-linecap="round" stroke-linejoin="round"/>
<path d="M15.6817 18.4958C16.1084 18.4958 16.4544 18.1334 16.4544 17.6863C16.4544 17.2392 16.1084 16.8768 15.6817 16.8768C15.2549 16.8768 14.9089 17.2392 14.9089 17.6863C14.9089 18.1334 15.2549 18.4958 15.6817 18.4958Z" stroke="white" stroke-width="2" stroke-linecap="round" stroke-linejoin="round"/>
<path d="M0.999878 1.49585H4.09079L6.1617 12.3354C6.23236 12.7081 6.4259 13.0429 6.70844 13.2811C6.99097 13.5194 7.34451 13.646 7.70715 13.6387H15.2181C15.5807 13.646 15.9342 13.5194 16.2168 13.2811C16.4993 13.0429 16.6929 12.7081 16.7635 12.3354L17.9999 5.54347H4.86351" stroke="white" stroke-width="2" stroke-linecap="round" stroke-linejoin="round"/>
</svg>
