<svg width="31" height="31" viewBox="0 0 31 31" fill="none" xmlns="http://www.w3.org/2000/svg">
<g clip-path="url(#clip0_176_992)">
<path d="M30.7733 2.93926C30.4705 2.63646 29.9802 2.63646 29.6775 2.93926L15.4999 17.1168L1.32297 2.93926C1.02017 2.63646 0.529852 2.63646 0.227114 2.93926C-0.0756234 3.24206 -0.0756234 3.73237 0.227114 4.03511L10.5585 14.3665C9.41515 14.5117 8.52492 15.4799 8.52492 16.6621C8.52492 17.944 9.56809 18.9872 10.8499 18.9872C12.0321 18.9872 13.0004 18.0969 13.1455 16.9535L14.5008 18.3088C13.5924 19.6775 11.625 22.8214 11.625 24.4128C11.625 26.5492 13.3625 28.2878 15.5 28.2878C17.6375 28.2878 19.375 26.5492 19.375 24.4128C19.375 22.8214 17.4076 19.6775 16.4992 18.3093L17.8545 16.9541C17.9996 18.0975 18.9679 18.9877 20.1501 18.9877C21.4319 18.9877 22.4751 17.9445 22.4751 16.6627C22.4751 15.4805 21.5849 14.5123 20.4415 14.3671L30.7733 4.03565C31.0756 3.73285 31.0756 3.24206 30.7733 2.93926ZM10.8499 17.4376C10.4231 17.4376 10.0749 17.0904 10.0749 16.6626C10.0749 16.2348 10.4231 15.8876 10.8499 15.8876C11.2767 15.8876 11.6249 16.2348 11.6249 16.6626C11.6249 17.0904 11.2766 17.4376 10.8499 17.4376ZM17.825 24.4127C17.825 25.6946 16.7818 26.7377 15.4999 26.7377C14.2181 26.7377 13.1749 25.6946 13.1749 24.4127C13.1749 23.5664 14.3845 21.3571 15.4999 19.6133C16.6154 21.3566 17.825 23.5649 17.825 24.4127ZM20.925 16.6626C20.925 17.0904 20.5768 17.4376 20.15 17.4376C19.7232 17.4376 19.375 17.0904 19.375 16.6626C19.375 16.2348 19.7232 15.8876 20.15 15.8876C20.5767 15.8876 20.925 16.2348 20.925 16.6626Z" fill="#FF1D79"/>
</g>
<defs>
<clipPath id="clip0_176_992">
<rect width="31" height="31" fill="white"/>
</clipPath>
</defs>
</svg>
