<svg width="27" height="27" viewBox="0 0 27 27" fill="none" xmlns="http://www.w3.org/2000/svg">
<g clip-path="url(#clip0_176_991)">
<path d="M7.87319 9.54498C7.75707 9.37037 7.60092 9.23221 7.425 9.13006V3.92581C8.2089 3.64637 8.775 2.90387 8.775 2.025C8.775 0.908561 7.86644 0 6.75 0C5.63356 0 4.725 0.908561 4.725 2.025C4.725 2.90387 5.29111 3.6459 6.075 3.92581V9.13054C5.89903 9.23268 5.74288 9.37085 5.62681 9.54545C5.11967 10.305 0.675003 17.0834 0.675003 20.925C0.675003 24.2748 3.40021 27 6.75 27C10.0998 27 12.825 24.2748 12.825 20.925C12.825 17.0834 8.38034 10.305 7.87319 9.54498ZM6.75 1.35C7.12262 1.35 7.425 1.65196 7.425 2.025C7.425 2.39762 7.12262 2.7 6.75 2.7C6.37738 2.7 6.075 2.39762 6.075 2.025C6.075 1.65196 6.37738 1.35 6.75 1.35ZM6.75 10.4454C6.75 10.4454 10.125 15.5079 10.125 18.0392C10.125 19.9035 8.6139 21.4142 6.75 21.4142C4.88611 21.4142 3.375 19.9031 3.375 18.0392C3.375 15.5079 6.75 10.4454 6.75 10.4454ZM6.75 25.65C4.14044 25.65 2.025 23.5346 2.025 20.925C2.025 20.4655 2.1069 19.9449 2.24549 19.3896C2.83047 21.3345 4.617 22.7641 6.75 22.7641C8.883 22.7641 10.6695 21.3345 11.2545 19.3896C11.3927 19.9449 11.475 20.4655 11.475 20.925C11.475 23.5346 9.35956 25.65 6.75 25.65Z" fill="#FF1D79"/>
<path d="M21.3732 9.54498C21.2567 9.37037 21.1009 9.23221 20.925 9.13006V3.92581C21.7089 3.64637 22.275 2.90387 22.275 2.025C22.275 0.908561 21.3664 0 20.25 0C19.1336 0 18.225 0.908561 18.225 2.025C18.225 2.90387 18.7911 3.6459 19.575 3.92581V9.13054C19.3991 9.23268 19.2429 9.37085 19.1268 9.54545C18.6197 10.305 14.175 17.0834 14.175 20.925C14.175 24.2748 16.9002 27 20.25 27C23.5998 27 26.325 24.2748 26.325 20.925C26.325 17.0834 21.8803 10.305 21.3732 9.54498ZM20.25 1.35C20.6226 1.35 20.925 1.65196 20.925 2.025C20.925 2.39762 20.6226 2.7 20.25 2.7C19.8774 2.7 19.575 2.39762 19.575 2.025C19.575 1.65196 19.8774 1.35 20.25 1.35ZM20.25 10.4454C20.25 10.4454 23.625 15.5079 23.625 18.0392C23.625 19.9031 22.1139 21.4142 20.25 21.4142C18.3861 21.4142 16.875 19.9031 16.875 18.0392C16.875 15.5079 20.25 10.4454 20.25 10.4454ZM20.25 25.65C17.6404 25.65 15.525 23.5346 15.525 20.925C15.525 20.4655 15.6069 19.9449 15.7455 19.3896C16.3305 21.3345 18.117 22.7641 20.25 22.7641C22.383 22.7641 24.1695 21.334 24.7545 19.3896C24.8927 19.9449 24.975 20.4655 24.975 20.925C24.975 23.5346 22.8596 25.65 20.25 25.65Z" fill="#FF1D79"/>
</g>
<defs>
<clipPath id="clip0_176_991">
<rect width="27" height="27" fill="white"/>
</clipPath>
</defs>
</svg>
