<svg width="164" height="51" viewBox="0 0 164 51" fill="none" xmlns="http://www.w3.org/2000/svg">
<g clip-path="url(#clip0_164_348)">
<path d="M40.82 45.6299C37.24 45.6299 35.45 43.2599 35.45 38.5199C35.45 34.6999 36.85 31.0299 39.65 27.4899C42.45 23.9499 45.3499 22.1799 48.3499 22.1799C51.9699 22.1799 53.79 24.5499 53.79 29.2899C53.79 33.1199 52.3899 36.7999 49.59 40.3299C46.79 43.8599 43.87 45.6199 40.81 45.6199L40.82 45.6299ZM43.7099 42.9599C45.5399 42.9599 47.07 41.9399 48.2999 39.9099C49.5299 37.8799 50.15 35.3399 50.15 32.2999C50.15 27.3399 48.61 24.8599 45.52 24.8599C43.71 24.8599 42.19 25.8799 40.95 27.9199C39.72 29.9599 39.0999 32.4999 39.0999 35.5199C39.0999 40.4799 40.63 42.9599 43.7 42.9599H43.7099Z" fill="#470063"/>
<path d="M63.33 31.79C66.86 25.1 70.33 21.75 73.75 21.75C74.64 21.75 75.53 21.96 76.42 22.37L73.06 26.04C72.55 25.75 71.9 25.61 71.11 25.61C69.46 25.61 67.71 26.95 65.88 29.63C64.05 32.31 62.97 35.1 62.65 37.99L62.01 43.81L58.46 45L58.53 44.28L58.7 42.73L58.89 41.18L60.14 29.83L60.28 28.59C60.39 27.65 60.45 26.89 60.45 26.3C60.45 25.33 60.18 24.85 59.64 24.85C58.37 24.85 57.1 26.21 55.84 28.93C55.44 28.63 55.25 28.32 55.27 28C55.32 27.03 56.21 25.75 57.93 24.15C59.66 22.55 61.02 21.75 62.03 21.75C63.38 21.75 64.06 22.64 64.06 24.42C64.06 24.85 64.02 25.43 63.94 26.16L63.77 27.83L63.55 29.83L63.33 31.79Z" fill="#470063"/>
<path d="M80.26 31.8801C81.98 28.8901 83.88 26.4501 85.97 24.5801C88.06 22.7001 89.9 21.7601 91.49 21.7601C93.78 21.7601 94.93 23.7101 94.93 27.6101C94.93 32.3801 93.41 36.4601 90.38 39.8401C87.35 43.2201 83.7 44.9101 79.42 44.9101C78.88 44.9101 78.4 44.8901 77.99 44.8401L76.06 44.6501C75.95 44.6501 75.65 44.6301 75.15 44.6001C75.5 43.3901 75.75 42.1201 75.89 40.7801L78.17 20.2001C78.73 15.2501 80.56 11.0301 83.66 7.55007C86.76 4.06007 90.23 2.32007 94.07 2.32007C94.87 2.32007 95.63 2.41007 96.36 2.58007L92.85 6.01007C91.94 5.74007 91.09 5.60007 90.3 5.60007C85.56 5.60007 82.78 9.29007 81.97 16.6801L80.26 31.8701V31.8801ZM79.24 41.3101C80.72 42.1201 82.19 42.5201 83.67 42.5201C85.86 42.5201 87.64 41.2501 89 38.7201C90.36 36.1901 91.05 32.8901 91.05 28.8201C91.05 26.4501 90.41 25.2701 89.12 25.2701C87.69 25.2701 86.02 26.3401 84.1 28.4901C81.5 31.4001 79.97 34.8101 79.53 38.7301L79.24 41.3001V41.3101Z" fill="#470063"/>
<path d="M100.66 45.0999C97.08 45.0999 95.29 42.7299 95.29 37.9899C95.29 34.1699 96.69 30.4999 99.49 26.9599C102.29 23.4199 105.19 21.6499 108.19 21.6499C111.81 21.6499 113.63 24.0199 113.63 28.7599C113.63 32.5899 112.23 36.2699 109.43 39.7999C106.63 43.3299 103.71 45.0899 100.65 45.0899L100.66 45.0999ZM103.55 42.4299C105.38 42.4299 106.91 41.4099 108.14 39.3799C109.37 37.3499 109.99 34.8099 109.99 31.7699C109.99 26.8099 108.45 24.3299 105.36 24.3299C103.55 24.3299 102.03 25.3499 100.79 27.3899C99.56 29.4299 98.94 31.9699 98.94 34.9899C98.94 39.9499 100.47 42.4299 103.54 42.4299H103.55Z" fill="#470063"/>
<path d="M124.36 38.1399C124.82 38.3599 125.05 38.6499 125.05 38.9999C125.05 40.1399 124.2 41.5599 122.49 43.2499C120.78 44.9399 119.35 45.7799 118.19 45.7799C116.87 45.7799 116.21 44.8299 116.21 42.9199C116.21 41.7599 116.28 40.5799 116.42 39.3699L116.68 37.2499L118.52 20.6499C119.09 15.5899 120.83 11.3699 123.73 7.98991C126.63 4.59991 129.97 2.90991 133.76 2.90991C134.68 2.90991 135.46 2.98991 136.1 3.14991L132.72 6.60991C131.97 6.35991 131.1 6.22991 130.1 6.22991C127.72 6.22991 125.94 7.06991 124.75 8.73991C123.57 10.4199 122.75 13.2599 122.31 17.2599L120.1 37.2299C119.92 38.7699 119.84 39.8799 119.84 40.5399C119.84 41.9699 120.09 42.6799 120.58 42.6799C121.17 42.6799 121.85 42.2099 122.65 41.2699C123.44 40.3299 124.02 39.2899 124.38 38.1499L124.36 38.1399Z" fill="#470063"/>
<path d="M142.05 36.8999C142.45 37.1699 142.65 37.4899 142.65 37.8499C142.65 38.3399 142.14 39.1899 141.12 40.3799C138.4 43.5299 135.71 45.0999 133.06 45.0999C131.44 45.0999 130.1 44.4599 129.05 43.1699C128 41.8799 127.48 40.2399 127.48 38.2299C127.48 34.6099 128.85 30.9399 131.59 27.2199C134.33 23.5099 137.05 21.6499 139.73 21.6499C141.67 21.6499 142.64 22.6899 142.64 24.7699C142.64 27.1099 141.51 29.3899 139.24 31.6099C136.97 33.8399 134.21 35.3899 130.95 36.2599C131.27 40.0799 132.78 41.9799 135.48 41.9799C138.18 41.9799 140.34 40.2799 142.04 36.8799L142.05 36.8999ZM131.05 33.3699C131.51 33.5299 131.93 33.6099 132.31 33.6099C134.28 33.6099 136.01 33.0099 137.49 31.7999C138.97 30.5899 139.71 29.1799 139.71 27.5599C139.71 25.6999 138.76 24.7699 136.87 24.7699C135.5 24.7699 134.27 25.5899 133.16 27.2099C132.05 28.8399 131.35 30.8899 131.05 33.3699Z" fill="#470063"/>
<path d="M153.22 25.1401L152.07 35.6801C151.86 37.5701 151.76 38.9701 151.76 39.8801C151.76 41.6801 152.37 42.5701 153.59 42.5701C154.9 42.5701 156.27 41.4901 157.68 39.3301C157.92 39.6301 158.04 39.9001 158.04 40.1401C158.04 41.0301 157.26 42.1001 155.69 43.3401C154.12 44.5801 152.78 45.2001 151.65 45.2001C149.39 45.2001 148.26 43.7501 148.26 40.8601C148.26 39.8001 148.39 38.0701 148.67 35.6801L149.81 25.1401H144.8L147.58 22.3701H150.12L150.62 18.0301L154.13 16.8601L153.55 22.3701H163.66L160.87 25.1401H153.23H153.22Z" fill="#470063"/>
<path d="M28.54 50.8399C26.53 50.8399 24.21 49.6599 21.59 47.2899C18.96 44.9199 16.56 41.8599 14.4 38.0899C14.4 38.0899 14.1 38.9199 14.28 38.3699C14.42 36.5299 14.33 34.7299 14.12 32.9399C15.04 36.4399 16.74 39.5799 19.22 42.3399C21.64 45.0399 23.75 46.3899 25.55 46.3899C27.17 46.3899 27.98 44.8999 27.98 41.9199C27.98 36.7999 27.12 32.6399 25.4 29.4499C23.68 26.2599 21.44 24.6599 18.68 24.6599C16.83 24.6599 14.97 25.1699 13.12 26.1799C12.91 24.6899 12.74 23.1899 12.7 21.6599C12.9 21.6599 13.11 21.6499 13.34 21.6499C18.73 21.6499 23.34 23.7799 27.15 28.0399C30.97 32.2999 32.88 37.4399 32.88 43.4599C32.88 48.3699 31.43 50.8299 28.54 50.8299V50.8399Z" fill="#470063"/>
<path d="M10.95 40.94L11.06 38.35C11.1 37.39 11.5 29.97 11.47 29.67L12.05 16.18C12.39 8.76 10.21 4.68 5.53 3.95C4.74 3.83 3.88 3.83 2.94 3.95L0 0.03C0.75 -0.03 1.52 0 2.3 0.12C6.09 0.71 9.25 2.97 11.78 6.89C14.31 10.81 15.47 15.26 15.26 20.24L14.34 40.93C14.28 42.27 14.32 43.56 14.48 44.81C13.99 44.77 13.69 44.73 13.58 44.72L11.64 44.61C11.36 44.6 11.05 44.57 10.71 44.53C10.86 43.33 10.92 42.13 10.93 40.94C10.93 40.94 10.93 40.94 10.94 40.94H10.95Z" fill="#470063"/>
<path d="M14.72 13.26C19.03 12.34 22.24 9.05996 25.15 5.97996C25.53 5.57996 24.92 4.97996 24.55 5.37996C21.74 8.35996 18.66 11.56 14.5 12.44C13.96 12.55 14.19 13.38 14.73 13.26H14.72Z" fill="#470063"/>
<path d="M15.14 13.37C18.25 13.37 21.27 14.69 23.37 16.99C23.74 17.4 24.34 16.79 23.97 16.39C21.72 13.93 18.47 12.52 15.14 12.52C14.59 12.52 14.59 13.37 15.14 13.37Z" fill="#470063"/>
<path d="M15.89 13.0199C17.62 12.9899 19.36 12.6499 21.01 12.1599C22.66 11.6699 24.3801 10.9699 25.7901 9.8699C26.2201 9.5299 25.6201 8.9299 25.1901 9.2699C23.8701 10.2899 22.24 10.9199 20.65 11.3799C19.06 11.8399 17.5 12.1299 15.9 12.1699C15.35 12.1799 15.35 13.0299 15.9 13.0199H15.89Z" fill="#470063"/>
<path d="M14.64 13.31C15.11 16.86 17.49 19.95 20.81 21.29C21.32 21.5 21.54 20.67 21.04 20.47C18.11 19.29 15.91 16.44 15.49 13.31C15.42 12.77 14.57 12.77 14.64 13.31Z" fill="#470063"/>
<path d="M14.65 25.1499C18.92 32.0699 18.25 43.6499 27.2 46.9499C27.72 47.1399 27.94 46.3199 27.43 46.1299C23.49 44.6799 21.23 40.7599 19.91 36.9899C18.46 32.8699 17.71 28.4899 15.39 24.7199C15.1 24.2499 14.36 24.6799 14.65 25.1499Z" fill="#470063"/>
<path d="M15.3901 25.96C19.2801 27.22 20.7701 31.35 21.9601 34.87C22.5001 36.48 23.2001 37.91 24.5801 38.96C25.9601 40.01 27.5201 40.52 29.1001 40.98C29.6301 41.13 29.8501 40.31 29.3301 40.16C27.6901 39.68 25.9601 39.11 24.6801 37.94C23.1701 36.57 22.7801 34.5 22.1001 32.66C20.9201 29.46 19.0501 26.26 15.6201 25.14C15.1001 24.97 14.8701 25.79 15.3901 25.96Z" fill="#470063"/>
<path d="M19.98 30.03C20.76 31.31 21.79 32.48 23.22 33.02C23.9 33.28 24.65 33.36 25.37 33.23C26.16 33.09 26.86 32.66 27.52 32.25C27.99 31.96 27.56 31.22 27.09 31.51C26.53 31.86 25.96 32.22 25.31 32.37C24.66 32.52 24.03 32.42 23.44 32.19C22.23 31.72 21.36 30.67 20.71 29.59C20.42 29.12 19.69 29.55 19.97 30.02L19.98 30.03Z" fill="#470063"/>
<path d="M16.43 39.5999C18.55 38.2199 18.72 35.5599 18.73 33.2699C18.73 32.7199 17.88 32.7199 17.88 33.2699C17.87 35.2099 17.83 37.6699 16 38.8599C15.54 39.1599 15.97 39.8999 16.43 39.5999Z" fill="#470063"/>
<path d="M23.4 0.0400457C21.82 0.270046 20.14 1.46005 18.34 3.62005C16.55 5.78005 15.01 8.46005 13.74 11.67C13.74 11.67 13.41 11.05 13.61 11.46C13.93 12.89 14.06 14.32 14.11 15.74C14.44 12.89 15.41 10.23 17.04 7.77005C18.63 5.37005 20.13 4.07005 21.55 3.87005C22.82 3.69005 23.63 4.76005 23.97 7.10005C24.56 11.12 24.35 14.48 23.37 17.19C22.38 19.89 20.81 21.4 18.64 21.72C17.18 21.93 15.67 21.74 14.1 21.16C14.1 22.36 14.14 23.56 14.29 24.76C14.45 24.74 14.62 24.72 14.79 24.7C19.02 24.08 22.4 21.88 24.91 18.1C27.42 14.32 28.33 10.06 27.65 5.34005C27.09 1.47005 25.67 -0.289954 23.4 0.0400457Z" fill="#470063"/>
</g>
<defs>
<clipPath id="clip0_164_348">
<rect width="163.66" height="50.84" fill="white"/>
</clipPath>
</defs>
</svg>
