<svg width="179" height="64" viewBox="0 0 179 64" fill="none" xmlns="http://www.w3.org/2000/svg">
<g clip-path="url(#clip0_43_556)">
<path d="M8.97578 43.9365C8.94814 44.5317 8.92971 45.1361 8.90206 45.7679C8.60717 53.1303 8.23855 55.0167 9.76831 56.7658C11.6943 58.9727 15.703 59.925 18.4584 58.5972C19.979 57.8646 19.9145 57.013 21.0664 56.7658C23.8126 56.1797 25.2133 60.8133 29.7565 63.185C33.9219 65.3553 41.9301 62.7821 44.0865 59.9433C45.6347 57.8921 42.9622 56.5826 44.8882 55.9416C47.3027 55.1449 49.9198 59.1283 54.0852 57.6815C59.0984 55.9416 63.6692 47.4803 61.9091 47.5994C56.9788 47.9382 59.4301 52.2604 61.8077 54.3391C63.7061 55.9966 70.0278 55.7035 72.3317 54.0186C74.9581 52.0864 74.3314 49.0554 76.3035 43.9365H8.97578Z" fill="#470063"/>
<path d="M122.62 47.1415C122.786 46.354 123.201 45.6672 123.671 45.017C123.938 44.6416 124.224 44.2844 124.519 43.9456H75.5755C75.4004 46.0793 75.4834 48.4418 76.1653 50.8319C76.5431 52.1414 77.566 55.7401 80.5058 57.7181C84.3578 60.3096 92.495 56.4086 95.6374 54.3574C100.116 51.4271 98.0519 51.9582 99.6646 51.1524C101.277 50.3465 101.71 53.0388 104.798 54.7695C106.917 55.9599 114.206 58.4232 117.81 55.7493C120.869 53.4875 121.643 49.3575 122.491 48.1854C122.519 47.8374 122.556 47.4895 122.629 47.1415H122.62Z" fill="#470063"/>
<path d="M178.77 46.8851C178.198 44.9712 175.839 44.7423 173.397 43.9365H123.311C122.768 44.5225 122.233 45.1177 121.763 45.7771C121.293 46.4272 120.925 47.0682 120.814 47.8741C120.722 48.5975 120.703 49.3118 120.556 50.026C120.537 50.0993 120.519 50.1634 120.491 50.2183C120.657 52.7457 120.593 56.5643 122.399 57.709C125.661 59.7877 131.227 50.6762 136.277 52.7915C139.208 54.0186 138.627 57.6082 141.484 58.6979C146.027 60.4195 148.552 52.819 154.45 53.5516C159.076 54.1285 157.823 58.2767 162.504 59.1558C169.305 60.4287 180.06 51.1524 178.779 46.8943L178.77 46.8851Z" fill="#470063"/>
<path d="M7.83297 23.1222C7.16025 24.7247 8.95725 26.2357 10.2474 28.7265C11.6021 31.3363 11.4362 35.8416 11.0492 44.7333C10.7727 51.1617 10.4317 52.81 11.8509 54.3393C13.6387 56.2715 17.3525 57.1048 19.9052 55.9418C21.3151 55.3008 21.2598 54.5591 22.3196 54.3393C24.863 53.8265 26.1624 57.874 30.3738 59.9435C34.2351 61.8391 39.6538 61.6285 41.6535 59.1468C43.0911 57.3612 41.8562 55.5114 43.2662 54.3484C45.4503 52.5445 49.0719 56.4088 52.9332 55.1451C57.5777 53.625 58.5914 45.9879 60.1857 46.3358C61.2823 46.5739 60.3884 50.1269 62.6001 51.9401C64.3603 53.3869 67.7147 53.4144 69.8526 51.9401C72.7002 49.9713 71.41 46.693 74.6815 40.7316C76.1836 38.0028 78.1189 35.6493 78.7086 35.9332C79.6302 36.3636 75.8427 42.4165 77.9069 48.7442C78.2571 49.8156 79.2063 52.7368 81.934 54.3484C85.5096 56.4638 90.2924 55.2275 93.2137 53.5518C97.3698 51.1617 98.1439 47.6453 100.466 47.9475C102.171 48.1673 102.107 50.1178 104.493 51.9492C107.765 54.4583 113.23 54.9162 116.575 52.7459C119.984 50.539 120.344 46.1435 121.404 46.345C122.703 46.5831 121.293 52.9382 123.818 54.3484C126.85 56.0425 132.011 48.6252 136.71 50.3467C139.429 51.3449 138.894 54.266 141.539 55.1451C145.76 56.5462 148.958 49.7515 154.432 50.3467C158.726 50.8137 158.947 55.2367 163.297 55.951C169.609 56.9857 177.369 49.0006 176.189 45.5483C175.24 42.792 169.084 44.3304 166.522 39.9441C165.204 37.6822 165.186 34.4681 166.522 33.5432C167.868 32.6091 169.563 34.6878 172.162 34.3399C176.364 33.7813 180.29 27.2064 178.604 24.7339C177.267 22.7743 170.881 26.9866 168.937 24.7339C167.628 23.2138 169.913 20.7597 168.531 18.7267C166.753 16.0986 160.293 16.3367 158.864 18.7267C158.274 19.7066 158.873 20.4941 158.062 21.9318C157.454 22.994 156.247 24.1021 154.837 24.331C152.589 24.6881 151.833 22.4812 149.197 21.9318C145.364 21.1259 141.631 24.6698 141.143 25.1368C140.037 26.1807 138.784 28.5158 136.314 33.1403C134.609 36.3361 134.231 37.2244 133.9 37.142C133.181 36.968 134.213 32.7556 134.701 24.331C135.033 18.7084 134.784 16.9777 136.314 15.5217C138.166 13.7544 139.862 15.0272 143.567 13.1225C144.617 12.5822 148.801 10.4303 149.206 6.7216C149.363 5.24728 148.967 3.20521 147.594 1.9232C143.788 -1.62981 132.997 1.16315 128.26 7.52743C124.592 12.4449 124.233 17.1334 124.233 17.1334C124.058 19.4227 124.445 21.3732 123.431 21.9318C122.15 22.6369 120.749 19.9904 117.791 19.5326C113.405 18.8458 111.681 23.9281 107.322 23.5343C103.618 23.1955 102.908 19.3586 99.2682 19.5326C96.1626 19.6791 94.7987 22.5728 93.6284 21.9318C92.2092 21.1534 92.4488 15.8788 95.2411 13.9283C97.0381 12.6738 98.4296 13.8185 101.683 13.1317C105.36 12.3441 109.82 9.54203 109.737 6.73075C109.654 4.01105 105.35 1.57522 101.683 1.12652C93.2874 0.110063 86.7906 9.32225 86.3759 9.93579C84.6987 12.3899 82.8924 15.0272 82.3487 18.7451C82.1644 19.9904 82.2013 20.8512 81.547 21.9501C80.22 24.1753 77.0038 25.787 74.2945 25.1551C71.1889 24.4226 71.0599 21.2725 68.6546 21.1534C66.0559 21.0252 65.4845 24.679 62.2131 25.1551C59.2826 25.5764 58.5453 22.8292 54.9605 22.7559C51.8826 22.6918 49.4774 24.6606 46.9063 26.7577C45.2659 28.0946 43.3584 29.6605 42.0774 32.3619C41.1927 34.2208 41.1467 35.4754 40.4647 35.5669C39.2206 35.7318 38.9718 31.5561 35.6358 29.166C32.6777 27.0507 29.3141 27.7649 29.1943 26.7668C29.0837 25.8969 31.6917 25.6038 34.0231 23.5618C37.4421 20.5765 37.866 15.9338 38.0503 13.9558C38.2807 11.4193 38.6954 6.94137 35.6358 3.55319C35.2949 3.17774 32.2354 -0.109711 28.3833 0.348152C26.0518 0.622869 24.3101 2.17044 22.7435 3.55319C20.0065 5.9707 20.0895 7.3626 18.7164 7.55491C16.5876 7.84794 15.9425 4.56049 11.4638 1.95067C10.1092 1.13568 6.80085 -0.732403 3.40037 0.311523C2.74607 0.512982 0.76476 1.12652 0.174974 2.71072C-0.71892 5.11908 1.9259 8.75451 5.00385 9.91747C7.46436 10.8424 8.48727 9.54203 10.6437 10.7142C12.5328 11.7489 14.1087 14.0474 13.8691 16.3184C13.7124 17.7744 12.8646 18.7908 12.2564 19.5234C10.2935 21.8768 8.42276 21.6845 7.82376 23.1222H7.83297Z" fill="white"/>
<path d="M21.9603 43.4054C24.1996 41.9585 24.3932 39.1839 24.4116 36.7755C24.4116 36.043 23.2689 36.0338 23.2597 36.7755C23.2505 38.7169 23.2228 41.2168 21.3797 42.4164C20.7623 42.8193 21.3337 43.8083 21.9603 43.4054Z" fill="#470063"/>
<path d="M47.146 49.4949C43.4414 49.4949 41.5891 47.0591 41.5891 42.1875C41.5891 38.259 43.0359 34.4771 45.9296 30.8416C48.8232 27.2062 51.8274 25.3839 54.9422 25.3839C58.6929 25.3839 60.5728 27.8197 60.5728 32.6914C60.5728 36.629 59.126 40.4201 56.2324 44.0464C53.3387 47.6727 50.3069 49.4949 47.146 49.4949ZM50.1318 46.7478C52.0209 46.7478 53.606 45.7038 54.8869 43.6068C56.1587 41.5098 56.8037 38.9092 56.8037 35.7774C56.8037 30.6768 55.2095 28.1219 52.0117 28.1219C50.1318 28.1219 48.556 29.175 47.2842 31.272C46.0125 33.369 45.3674 35.9788 45.3674 39.0832C45.3674 44.1837 46.9525 46.7386 50.1318 46.7386V46.7478Z" fill="#470063"/>
<path d="M70.4425 35.2646C74.0918 28.3783 77.6858 24.9352 81.2245 24.9352C82.1461 24.9352 83.0676 25.1458 83.9892 25.5762L80.515 29.3581C79.9897 29.0651 79.317 28.9186 78.4968 28.9186C76.7827 28.9186 74.9857 30.2922 73.0781 33.0485C71.1798 35.8048 70.0647 38.6711 69.7329 41.6472L69.0694 47.636L65.4017 48.8631L65.4754 48.1305L65.6505 46.5371L65.844 44.9438L67.1434 33.2683L67.2908 31.9954C67.4014 31.0339 67.4659 30.2464 67.4659 29.642C67.4659 28.6439 67.1895 28.1494 66.6273 28.1494C65.3095 28.1494 64.001 29.5504 62.7016 32.3434C62.2869 32.032 62.0934 31.7115 62.1118 31.391C62.1579 30.3929 63.0794 29.0743 64.8672 27.426C66.655 25.7868 68.0742 24.9627 69.1063 24.9627C70.507 24.9627 71.2074 25.8784 71.2074 27.7098C71.2074 28.1494 71.1705 28.7446 71.0876 29.5046L70.9125 31.2262L70.6821 33.2866L70.4517 35.3012L70.4425 35.2646Z" fill="#470063"/>
<path d="M87.961 35.3469C89.7396 32.2701 91.7117 29.761 93.8681 27.8288C96.0245 25.8967 97.9321 24.9352 99.5817 24.9352C101.959 24.9352 103.139 26.9406 103.139 30.9515C103.139 35.8597 101.572 40.0538 98.4297 43.5335C95.2965 47.0133 91.509 48.7532 87.0856 48.7532C86.5234 48.7532 86.035 48.7257 85.6019 48.6799L83.6021 48.4876C83.4823 48.4876 83.1782 48.4693 82.6622 48.4418C83.0216 47.1964 83.2796 45.8869 83.4271 44.5133L85.7862 23.3418C86.3668 18.2504 88.2559 13.9098 91.4721 10.3293C94.6883 6.7397 98.2731 4.95404 102.245 4.95404C103.065 4.95404 103.858 5.04561 104.613 5.2196L100.982 8.7543C100.042 8.47958 99.1577 8.33307 98.3376 8.33307C93.4258 8.33307 90.5506 12.1333 89.712 19.7338L87.9426 35.3561L87.961 35.3469ZM86.9013 45.0536C88.431 45.8869 89.9516 46.299 91.4813 46.299C93.7483 46.299 95.5914 44.9987 97.0013 42.3889C98.4113 39.7882 99.1209 36.3909 99.1209 32.2152C99.1209 29.7793 98.4574 28.5614 97.1211 28.5614C95.6467 28.5614 93.9142 29.6603 91.9237 31.8672C89.2328 34.8525 87.6569 38.3688 87.1962 42.398L86.9013 45.0445V45.0536Z" fill="#470063"/>
<path d="M109.083 48.9547C105.378 48.9547 103.526 46.5188 103.526 41.6472C103.526 37.7187 104.973 33.9368 107.866 30.3013C110.76 26.6659 113.764 24.8436 116.879 24.8436C120.63 24.8436 122.51 27.2795 122.51 32.1511C122.51 36.0887 121.063 39.8798 118.169 43.5061C115.275 47.1324 112.244 48.9547 109.083 48.9547ZM112.069 46.2075C113.958 46.2075 115.543 45.1636 116.824 43.0665C118.095 40.9695 118.74 38.3689 118.74 35.2371C118.74 30.1365 117.146 27.5816 113.948 27.5816C112.069 27.5816 110.493 28.6347 109.221 30.7317C107.949 32.8287 107.304 35.4386 107.304 38.5429C107.304 43.6435 108.889 46.1983 112.069 46.1983V46.2075Z" fill="#470063"/>
<path d="M133.614 41.7937C134.093 42.0226 134.324 42.3157 134.324 42.6728C134.324 43.8541 133.439 45.3101 131.67 47.0408C129.9 48.7715 128.417 49.6415 127.209 49.6415C125.846 49.6415 125.164 48.6616 125.164 46.702C125.164 45.5115 125.237 44.2936 125.385 43.0482L125.652 40.8688L127.56 23.7997C128.149 18.5984 129.946 14.2579 132.951 10.7781C135.955 7.29835 139.411 5.54932 143.327 5.54932C144.286 5.54932 145.087 5.63173 145.742 5.79656L142.24 9.34957C141.466 9.08401 140.563 8.95581 139.53 8.95581C137.061 8.95581 135.218 9.81659 133.992 11.5382C132.766 13.2597 131.928 16.1809 131.467 20.3016L129.172 40.8413C128.988 42.4255 128.905 43.5611 128.905 44.2478C128.905 45.7222 129.163 46.4547 129.67 46.4547C130.278 46.4547 130.988 45.9694 131.808 44.9987C132.628 44.0281 133.227 42.9567 133.605 41.7937H133.614Z" fill="#470063"/>
<path d="M151.925 40.5117C152.34 40.7864 152.543 41.1161 152.543 41.4915C152.543 41.9952 152.017 42.8651 150.967 44.0922C148.156 47.3338 145.373 48.9455 142.627 48.9455C140.95 48.9455 139.567 48.2862 138.48 46.9584C137.392 45.6306 136.849 43.9456 136.849 41.8761C136.849 38.1491 138.268 34.3763 141.106 30.5578C143.945 26.7392 146.755 24.8345 149.538 24.8345C151.547 24.8345 152.552 25.9059 152.552 28.0487C152.552 30.457 151.381 32.8013 149.032 35.0906C146.691 37.3799 143.825 38.9733 140.452 39.8707C140.784 43.7991 142.341 45.7588 145.143 45.7588C147.944 45.7588 150.174 44.0098 151.934 40.5117H151.925ZM140.544 36.8854C141.023 37.0502 141.456 37.1327 141.853 37.1327C143.889 37.1327 145.677 36.51 147.207 35.2646C148.737 34.0192 149.501 32.5632 149.501 30.8966C149.501 28.9827 148.525 28.0304 146.562 28.0304C145.143 28.0304 143.871 28.8728 142.719 30.5486C141.576 32.2244 140.848 34.3397 140.535 36.8854H140.544Z" fill="#470063"/>
<path d="M163.481 28.4241L162.283 39.2663C162.071 41.2168 161.961 42.6544 161.961 43.5793C161.961 45.4291 162.597 46.354 163.859 46.354C165.223 46.354 166.633 45.2459 168.089 43.0207C168.338 43.3321 168.458 43.6068 168.458 43.854C168.458 44.7698 167.647 45.8686 166.025 47.1415C164.403 48.4143 163.011 49.0554 161.841 49.0554C159.5 49.0554 158.339 47.5719 158.339 44.5866C158.339 43.4877 158.477 41.7204 158.763 39.2663L159.943 28.4241H154.763L157.639 25.5762H160.265L160.79 21.1074L164.43 19.9078L163.831 25.5762H174.3L171.407 28.4241H163.49H163.481Z" fill="#470063"/>
<path d="M34.4195 54.8519C32.3461 54.8519 29.9408 53.634 27.2223 51.1982C24.5038 48.7624 22.0156 45.6123 19.7763 41.7296C19.7763 41.7296 19.4629 42.5812 19.6565 42.0226C19.8039 40.1271 19.7025 38.2773 19.4906 36.4367C20.449 40.0355 22.2091 43.2589 24.771 46.1068C27.2776 48.8814 29.4616 50.2733 31.3232 50.2733C33.0004 50.2733 33.839 48.744 33.839 45.6764C33.839 40.411 32.9451 36.1345 31.1665 32.8562C29.3879 29.5779 27.0656 27.9296 24.2181 27.9296C22.3013 27.9296 20.3753 28.4516 18.4585 29.4955C18.2373 27.9571 18.0622 26.4187 18.0253 24.8528C18.2373 24.8528 18.4585 24.8436 18.6796 24.8436C24.2642 24.8436 29.0285 27.0322 32.9819 31.4185C36.9353 35.8049 38.9074 41.0886 38.9074 47.2789C38.9074 52.3337 37.4145 54.8611 34.4195 54.8611V54.8519Z" fill="#470063"/>
<path d="M16.2191 44.6691L16.3389 42.0135C16.385 41.0245 16.7997 33.3873 16.7628 33.0851L17.3618 19.2119C17.712 11.5748 15.4542 7.38074 10.6069 6.62985C9.79597 6.50165 8.90207 6.51081 7.93445 6.62985L4.89337 2.58235C5.66747 2.51825 6.46921 2.55488 7.28016 2.68308C11.2059 3.28746 14.4774 5.6134 17.0946 9.64258C19.7117 13.6809 20.9097 18.2504 20.6886 23.3693L19.7394 44.6507C19.6749 46.0335 19.721 47.3613 19.8868 48.6433C19.38 48.5975 19.0667 48.57 18.9561 48.5517L16.9471 48.4418C16.6522 48.4327 16.3389 48.4052 15.9887 48.3594C16.1454 47.1232 16.2007 45.8961 16.2191 44.6599C16.2191 44.6599 16.2191 44.6599 16.2283 44.6599L16.2191 44.6691Z" fill="#470063"/>
<path d="M20.1541 16.3273C24.642 15.3842 27.978 11.9868 31.0098 8.80009C31.5167 8.26897 30.7057 7.45397 30.1989 7.99425C27.3052 11.0436 24.1443 14.3219 19.85 15.2285C19.122 15.3842 19.4353 16.483 20.1541 16.3365V16.3273Z" fill="#470063"/>
<path d="M20.5503 16.4464C23.7389 16.4464 26.8168 17.7925 28.9732 20.1276C29.4709 20.6679 30.291 19.862 29.7842 19.3218C27.4342 16.7761 24.0245 15.3017 20.5503 15.3109C19.8131 15.3109 19.8039 16.4556 20.5503 16.4556V16.4464Z" fill="#470063"/>
<path d="M21.3337 16.0893C23.1307 16.0527 24.9461 15.7138 26.6694 15.201C28.3927 14.6882 30.1989 13.9556 31.6734 12.811C32.2539 12.3623 31.4338 11.5564 30.8624 12.0051C29.5169 13.0399 27.8397 13.6718 26.2178 14.1388C24.5959 14.6058 22.9832 14.908 21.3337 14.9446C20.5964 14.9629 20.5872 16.1076 21.3337 16.0893Z" fill="#470063"/>
<path d="M19.8961 16.2541C20.3845 19.9719 22.8818 23.1861 26.3837 24.5963C26.6786 24.7154 27.0103 24.4681 27.0933 24.1934C27.1854 23.8638 26.9735 23.6074 26.6878 23.4883C23.7204 22.2979 21.4627 19.4133 21.048 16.2541C21.0111 15.9427 20.8084 15.6863 20.4766 15.6863C20.2002 15.6863 19.8592 15.9519 19.9053 16.2541H19.8961Z" fill="#470063"/>
<path d="M19.9237 28.4973C24.3748 35.6675 23.6652 47.5627 33.0004 50.9784C33.7008 51.2348 33.9956 50.1268 33.3045 49.8704C29.2774 48.396 26.9643 44.3943 25.6096 40.5666C24.1075 36.3176 23.3242 31.8031 20.9098 27.9204C20.5227 27.2977 19.5275 27.8655 19.9145 28.4973H19.9237Z" fill="#470063"/>
<path d="M20.7808 29.3948C24.7526 30.6768 26.2731 34.8983 27.4804 38.4605C28.0517 40.1546 28.7982 41.638 30.2542 42.7461C31.6365 43.79 33.3137 44.3577 34.9633 44.8431C35.6729 45.0537 35.977 43.9457 35.2674 43.735C33.5902 43.2497 31.8208 42.6728 30.5122 41.4824C28.9733 40.0905 28.577 37.9843 27.8766 36.1162C26.6325 32.783 24.6789 29.4497 21.0757 28.2868C20.3661 28.0578 20.062 29.1659 20.7715 29.3948H20.7808Z" fill="#470063"/>
<path d="M25.4437 33.5155C26.2731 34.8616 27.3605 36.0795 28.8811 36.6564C29.6091 36.9311 30.4108 37.0136 31.1849 36.8762C32.0051 36.7297 32.7423 36.2901 33.4427 35.8506C34.0694 35.466 33.498 34.477 32.8621 34.8616C32.2908 35.2096 31.7102 35.5759 31.0559 35.7316C30.4385 35.8781 29.775 35.7773 29.1944 35.5484C27.978 35.0722 27.1117 34.01 26.4482 32.9294C26.0612 32.2976 25.0659 32.8745 25.453 33.5063L25.4437 33.5155Z" fill="#470063"/>
<path d="M29.1115 2.60064C27.4803 2.83873 25.7386 4.0658 23.8771 6.28186C22.0156 8.49791 20.4306 11.2634 19.1127 14.56C19.1127 14.56 18.7718 13.9282 18.9837 14.3494C19.3155 15.8237 19.4537 17.2889 19.4998 18.754C19.8408 15.8145 20.8452 13.0857 22.5409 10.5583C24.1904 8.09499 25.7386 6.75803 27.2039 6.53826C28.5217 6.34596 29.3511 7.45398 29.7105 9.86234C30.3187 14.0014 30.1067 17.4537 29.0838 20.2375C28.0609 23.0213 26.4298 24.5689 24.1904 24.8894C22.6791 25.1092 21.1125 24.9169 19.4906 24.3125C19.4906 25.5395 19.5367 26.7758 19.6841 28.012C19.85 27.9937 20.0251 27.9754 20.2002 27.9479C24.5867 27.3161 28.0701 25.0542 30.6781 21.1624C33.2768 17.2706 34.226 12.8934 33.5072 8.04005C32.9266 4.07496 31.4614 2.25267 29.1115 2.59148V2.60064Z" fill="#470063"/>
</g>
<defs>
<clipPath id="clip0_43_556">
<rect width="179" height="64" fill="white"/>
</clipPath>
</defs>
</svg>
