<svg width="24" height="24" viewBox="0 0 24 24" fill="none" xmlns="http://www.w3.org/2000/svg">
<path d="M6 3C4.35503 3 3 4.35503 3 6V18C3 19.645 4.35503 21 6 21H18C19.645 21 21 19.645 21 18V6C21 4.35503 19.645 3 18 3H6ZM6 5H18C18.565 5 19 5.43497 19 6V18C19 18.565 18.565 19 18 19H6C5.43497 19 5 18.565 5 18V6C5 5.43497 5.43497 5 6 5ZM12 7V14C12 14.565 11.565 15 11 15C10.435 15 10 14.565 10 14C10 13.435 10.435 13 11 13V11C9.35503 11 8 12.355 8 14C8 15.645 9.35503 17 11 17C12.645 17 14 15.645 14 14V10.2324C14.6161 10.6713 15.2591 11 16 11V9C15.9527 9 15.2627 8.78094 14.7812 8.36133C14.2998 7.94172 14 7.41499 14 7H12Z" fill="#131313"/>
</svg>
