<svg width="40" height="62" viewBox="0 0 40 62" fill="none" xmlns="http://www.w3.org/2000/svg">
<g clip-path="url(#clip0_410_202)">
<path d="M34.7264 62.0001C32.288 62.0001 29.4641 60.5564 26.2659 57.669C23.0677 54.7815 20.1531 51.0415 17.5106 46.4376C17.5106 46.4376 17.1477 47.4493 17.3632 46.7786C17.5333 44.5278 17.4199 42.3338 17.1704 40.1512C18.2931 44.4255 20.3686 48.2451 23.3853 51.6213C26.334 54.918 28.8971 56.5663 31.0859 56.5663C33.0592 56.5663 34.0459 54.7474 34.0459 51.1097C34.0459 44.8574 33.0025 39.7988 30.9044 35.8996C28.8177 32.0118 26.0845 30.0566 22.7275 30.0566C20.4706 30.0566 18.2138 30.6704 15.9569 31.9095C15.696 30.0907 15.4919 28.2605 15.4465 26.3961C15.696 26.3961 15.9455 26.3848 16.2177 26.3848C22.7729 26.3848 28.3867 28.988 33.0252 34.1831C37.6751 39.3782 39.9886 45.6532 39.9886 52.9854C39.9886 58.9763 38.2308 61.9774 34.715 61.9774L34.7264 62.0001Z" fill="white"/>
<path d="M13.3258 49.9272L13.4619 46.7784C13.5072 45.6075 13.9949 36.5587 13.9609 36.1949L14.664 19.7457C15.0723 10.6856 12.4298 5.71784 6.72526 4.83115C5.77261 4.68337 4.71789 4.68337 3.58378 4.83115L0 0.0339378C0.918628 -0.034269 1.8486 -0.000165605 2.80125 0.147616C7.41707 0.863787 11.2617 3.62616 14.3351 8.40064C17.4086 13.1865 18.8262 18.6089 18.5654 24.6793L17.4539 49.9159C17.3745 51.5528 17.4312 53.133 17.624 54.6562C17.023 54.5994 16.6601 54.5653 16.524 54.5426L14.165 54.4061C13.8248 54.3948 13.4505 54.3607 13.0422 54.3038C13.2237 52.8374 13.2917 51.3823 13.3144 49.9159C13.3144 49.9159 13.3144 49.9159 13.3258 49.9159V49.9272Z" fill="white"/>
<path d="M17.9076 16.1764C23.1472 15.0624 27.0598 11.0495 30.5982 7.28679C31.0519 6.79797 30.3261 6.05906 29.8611 6.54788C26.4361 10.1856 22.6935 14.0847 17.624 15.1647C16.9663 15.3011 17.2498 16.3015 17.8962 16.165L17.9076 16.1764Z" fill="white"/>
<path d="M18.4179 16.3015C22.2058 16.3015 25.869 17.9157 28.432 20.7122C28.8857 21.2124 29.6115 20.4735 29.1692 19.9733C26.436 16.9836 22.478 15.2443 18.4179 15.2557C17.7487 15.2557 17.7487 16.3015 18.4179 16.3015Z" fill="white"/>
<path d="M19.3366 15.8809C21.4347 15.8354 23.5554 15.4376 25.5628 14.8351C27.5702 14.2326 29.6683 13.38 31.3808 12.05C31.9025 11.6407 31.1653 10.9132 30.6436 11.3111C29.0332 12.5615 27.0485 13.3232 25.1205 13.8802C23.1925 14.4372 21.2872 14.801 19.3366 14.8351C18.6674 14.8464 18.6674 15.8923 19.3366 15.8809Z" fill="white"/>
<path d="M17.8055 16.2333C18.3725 20.5644 21.2759 24.3271 25.3133 25.9641C25.937 26.2142 26.1979 25.2138 25.5855 24.9637C22.0244 23.52 19.3365 20.0529 18.8375 16.2333C18.7468 15.5739 17.7148 15.5739 17.7941 16.2333H17.8055Z" fill="white"/>
<path d="M17.8169 30.6705C23.0111 39.1167 22.1945 53.2355 33.0933 57.2597C33.7171 57.4871 33.9892 56.4867 33.3655 56.2594C28.5682 54.486 25.8237 49.7115 24.2132 45.1076C22.4554 40.083 21.5367 34.7401 18.7128 30.1475C18.3612 29.5791 17.4653 30.1021 17.8169 30.6705Z" fill="white"/>
<path d="M18.7241 31.6706C23.4534 33.2053 25.268 38.2526 26.7196 42.5382C27.3774 44.5049 28.228 46.2441 29.9065 47.5173C31.5849 48.7905 33.4789 49.4158 35.4069 49.9842C36.0533 50.1774 36.3255 49.1657 35.6791 48.9838C33.683 48.404 31.5849 47.6992 30.0199 46.2783C28.1826 44.6072 27.7063 42.0835 26.8784 39.8441C25.4381 35.9449 23.1699 32.0344 18.9963 30.6703C18.3612 30.4656 18.089 31.466 18.7241 31.6706Z" fill="white"/>
<path d="M24.3039 36.627C25.2566 38.1958 26.5041 39.6167 28.2506 40.2761C29.0785 40.5944 29.9971 40.6967 30.8704 40.5375C31.8231 40.367 32.6736 39.8441 33.4902 39.3439C34.0573 38.9915 33.5356 38.0934 32.9685 38.4458C32.288 38.8665 31.5962 39.3098 30.8024 39.4917C30.0085 39.6736 29.2486 39.5599 28.5228 39.2757C27.0485 38.7073 25.9937 37.4227 25.1999 36.1041C24.8483 35.5357 23.9523 36.0586 24.3039 36.627Z" fill="white"/>
<path d="M19.9943 48.2904C22.5688 46.6079 22.7729 43.3567 22.7956 40.5716C22.7956 39.9009 21.7635 39.9009 21.7522 40.5716C21.7409 42.9361 21.6842 45.9372 19.4613 47.3923C18.9056 47.7561 19.4273 48.6541 19.983 48.2904H19.9943Z" fill="white"/>
<path d="M28.4774 0.0453996C26.5608 0.329595 24.508 1.78467 22.3306 4.41064C20.1417 7.04797 18.2818 10.3219 16.7394 14.2324C16.7394 14.2324 16.3311 13.4821 16.592 13.9823C16.9889 15.7216 17.1363 17.4722 17.193 19.2001C17.59 15.7216 18.7808 12.4818 20.7655 9.48068C22.7048 6.55915 24.5307 4.96766 26.2546 4.71757C27.797 4.49021 28.7836 5.80888 29.1919 8.6622C29.9064 13.5731 29.6569 17.6655 28.4661 20.9622C27.2639 24.2588 25.3473 26.1004 22.7162 26.4869C20.9469 26.7484 19.0983 26.521 17.193 25.8048C17.193 27.2599 17.2497 28.7264 17.4199 30.1928C17.6127 30.1701 17.8168 30.1473 18.0323 30.1132C23.1811 29.363 27.2866 26.6802 30.3487 22.0648C33.3995 17.4495 34.5109 12.2658 33.683 6.50231C32.9571 1.79604 31.2446 -0.352473 28.4774 0.0453996Z" fill="white"/>
</g>
<defs>
<clipPath id="clip0_410_202">
<rect width="40" height="62" fill="white"/>
</clipPath>
</defs>
</svg>
